<?xml version="1.0" encoding="utf-8"?>
<!-- Uploaded to: SVG Repo, www.svgrepo.com, Generator: SVG Repo Mixer Tools -->
<svg width="800px" height="800px" viewBox="0 0 1024 1024" class="icon"  version="1.1" xmlns="http://www.w3.org/2000/svg"><path d="M350.1 787.6h321.3v75H350.1zM473.3 680.5h75v107.1h-75z" fill="#CCCCCC" /><path d="M628.6 488.3c0 64.7-52.8 117.2-117.8 117.2S393 553 393 488.3V347.7c0-64.7 52.8-117.1 117.8-117.1 65.1 0 117.8 52.4 117.8 117.1v140.6z" fill="#F7B71B" /><path d="M725 493.5v-70.1c0-11.8-9.6-21.4-21.4-21.4-11.8 0-21.4 9.6-21.4 21.4v13.3h-32.1v-89c0-76.4-62.5-138.6-139.2-138.6s-139.2 62.2-139.2 138.6v89h-32.1v-13.3c0-11.8-9.6-21.4-21.4-21.4s-21.4 9.6-21.4 21.4v70.1c0 95 65.8 175.2 155.3 200.2v72.5h-102c-11.8 0-21.4 9.6-21.4 21.4v75c0 11.8 9.6 21.4 21.4 21.4h321.3c11.8 0 21.4-9.6 21.4-21.4v-75c0-11.8-9.6-21.4-21.4-21.4H569.7v-72.5c89.6-25 155.3-105.2 155.3-200.2zM510.8 252c52.5 0 95.3 42 96.3 93.9h-64.2c-5.9 0-10.7 4.8-10.7 10.7 0 5.9 4.8 10.7 10.7 10.7h64.3v40h-64.3c-5.9 0-10.7 4.8-10.7 10.7 0 5.9 4.8 10.7 10.7 10.7h64.3v40h-64.3c-5.9 0-10.7 4.8-10.7 10.7 0 5.9 4.8 10.7 10.7 10.7h64.2c-1 51.9-43.8 93.9-96.3 93.9s-95.3-42-96.3-93.9h64.2c5.9 0 10.7-4.8 10.7-10.7 0-5.9-4.8-10.7-10.7-10.7h-64.3v-40h64.3c5.9 0 10.7-4.8 10.7-10.7 0-5.9-4.8-10.7-10.7-10.7h-64.3v-40h64.3c5.9 0 10.7-4.8 10.7-10.7 0-5.9-4.8-10.7-10.7-10.7h-64.2c1-51.9 43.8-93.9 96.3-93.9zM339.4 493.5v-35.4h32.1v30.2c0 76.4 62.5 138.6 139.2 138.6s139.2-62.2 139.2-138.6v-30.2H682v35.4c0 91.3-76.9 165.5-171.4 165.5s-171.2-74.2-171.2-165.5z m310.7 347.6H371.6V809h278.6v32.1zM526.9 701.9v64.3h-32.1v-64.3h32.1z" fill="#211F1E" /></svg>